<svg xmlns="http://www.w3.org/2000/svg" width="48" height="48" viewBox="316 38 48 58">

  <!-- Corpo -->
  <rect x="316" y="44" width="48" height="48" rx="5"
        fill="none" stroke="rgb(90,124,0)" stroke-width="2"/>

  <!-- Linha do header -->
  <line x1="316" y1="56" x2="364" y2="56"
        stroke="rgb(90,124,0)" stroke-width="2"/>

  <!-- Argolas -->
  <rect x="326" y="38" width="5" height="12" rx="2.5"
        fill="none" stroke="rgb(90,124,0)" stroke-width="1.8"/>
  <rect x="349" y="38" width="5" height="12" rx="2.5"
        fill="none" stroke="rgb(90,124,0)" stroke-width="1.8"/>

  <!-- Grade de dias -->
  <rect x="322" y="63" width="5" height="4" rx="1" fill="rgb(90,124,0)" opacity="0.6"/>
  <rect x="331" y="63" width="5" height="4" rx="1" fill="rgb(90,124,0)" opacity="0.6"/>
  <rect x="340" y="63" width="5" height="4" rx="1" fill="rgb(90,124,0)" opacity="0.6"/>
  <rect x="349" y="63" width="5" height="4" rx="1" fill="rgb(90,124,0)" opacity="0.6"/>
  <rect x="322" y="72" width="5" height="4" rx="1" fill="rgb(90,124,0)" opacity="0.6"/>
  <rect x="331" y="72" width="5" height="4" rx="1" fill="rgb(90,124,0)" opacity="0.6"/>
  <rect x="340" y="72" width="5" height="4" rx="1" fill="rgb(90,124,0)" opacity="0.6"/>
  <rect x="349" y="72" width="5" height="4" rx="1" fill="rgb(90,124,0)" opacity="0.6"/>
  <rect x="322" y="81" width="5" height="4" rx="1" fill="rgb(90,124,0)" opacity="0.6"/>
  <rect x="331" y="81" width="5" height="4" rx="1" fill="rgb(90,124,0)" opacity="0.6"/>
  <rect x="340" y="81" width="5" height="4" rx="1" fill="rgb(90,124,0)" opacity="0.6"/>

</svg>