<svg xmlns="http://www.w3.org/2000/svg" width="32" height="32" viewBox="0 0 32 32">
  <defs>
    <linearGradient id="gold-star" x1="20%" y1="0%" x2="80%" y2="100%">
      <stop offset="0%"   stop-color="#fff4a3"/>
      <stop offset="35%"  stop-color="#ffc200"/>
      <stop offset="70%"  stop-color="#e6a800"/>
      <stop offset="100%" stop-color="#9a6000"/>
    </linearGradient>
    <linearGradient id="gold-stroke" x1="0%" y1="0%" x2="100%" y2="100%">
      <stop offset="0%"   stop-color="#ffe066"/>
      <stop offset="100%" stop-color="#7a4800"/>
    </linearGradient>
  </defs>

  <polygon points="16,2 19.5,11.5 30,11.5 21.5,17.5 24.5,27 16,21 7.5,27 10.5,17.5 2,11.5 12.5,11.5"
           fill="#7a4800" opacity="0.25" transform="translate(0.5,0.8)"/>
  <polygon points="16,2 19.5,11.5 30,11.5 21.5,17.5 24.5,27 16,21 7.5,27 10.5,17.5 2,11.5 12.5,11.5"
           fill="url(#gold-star)" stroke="url(#gold-stroke)" stroke-width="0.6" stroke-linejoin="round"/>
  <polygon points="16,4 18.5,10.5 16,10 13,9" fill="white" opacity="0.4"/>
  <ellipse cx="13" cy="12" rx="3" ry="2" fill="white" opacity="0.25" transform="rotate(-20 13 12)"/>
</svg>